inDegrees=no
num_controls=7
num_derivatives=13
num_iterations=134
num_multipliers=7
num_parameters=0
num_slacks=7
num_states=26
objective=5.815978
objective_accelerations=0.846295
objective_balance=0.061091
objective_effort=0.307371
objective_height=4.578246
objective_ligament=0.022975
solver_duration=1487.631423
status=Solve_Succeeded
success=true
DataType=double
version=3
OpenSimVersion=4.4-2022-07-23-0e9fedc
endheader
time	/jointset/ground_pelvis/pelvis_tilt/value	/jointset/ground_pelvis/pelvis_tx/value	/jointset/ground_pelvis/pelvis_ty/value	/jointset/hip_l/hip_flexion_l/value	/jointset/hip_l/hip_adduction_l/value	/jointset/hip_l/hip_rotation_l/value	/jointset/back/lumbar_extension/value	/jointset/patellofemoral_l/patellar_flexion_l/value	/jointset/knee_l/knee_flexion_l/value	/jointset/knee_l/knee_adduction_l/value	/jointset/knee_l/knee_rotation_l/value	/jointset/ankle_l/ankle_angle_l/value	/jointset/subtalar_l/subtalar_angle_l/value	/jointset/ground_pelvis/pelvis_tilt/speed	/jointset/ground_pelvis/pelvis_tx/speed	/jointset/ground_pelvis/pelvis_ty/speed	/jointset/hip_l/hip_flexion_l/speed	/jointset/hip_l/hip_adduction_l/speed	/jointset/hip_l/hip_rotation_l/speed	/jointset/back/lumbar_extension/speed	/jointset/patellofemoral_l/patellar_flexion_l/speed	/jointset/knee_l/knee_flexion_l/speed	/jointset/knee_l/knee_adduction_l/speed	/jointset/knee_l/knee_rotation_l/speed	/jointset/ankle_l/ankle_angle_l/speed	/jointset/subtalar_l/subtalar_angle_l/speed	/forceset/tau_hip_flexion_l	/forceset/tau_hip_adduction_l	/forceset/tau_hip_rotation_l	/forceset/tau_knee_flexion_l	/forceset/tau_ankle_angle_l	/forceset/tau_subtalar_angle_l	/forceset/tau_lumbar_extension	lambda_cid13_p0	lambda_cid13_p1	lambda_cid13_p2	lambda_cid13_p3	lambda_cid13_p4	lambda_cid13_p5	lambda_cid14_p0	/jointset/ground_pelvis/pelvis_tilt/accel	/jointset/ground_pelvis/pelvis_tx/accel	/jointset/ground_pelvis/pelvis_ty/accel	/jointset/hip_l/hip_flexion_l/accel	/jointset/hip_l/hip_adduction_l/accel	/jointset/hip_l/hip_rotation_l/accel	/jointset/back/lumbar_extension/accel	/jointset/patellofemoral_l/patellar_flexion_l/accel	/jointset/knee_l/knee_flexion_l/accel	/jointset/knee_l/knee_adduction_l/accel	/jointset/knee_l/knee_rotation_l/accel	/jointset/ankle_l/ankle_angle_l/accel	/jointset/subtalar_l/subtalar_angle_l/accel	gamma_cid13_p0	gamma_cid13_p1	gamma_cid13_p2	gamma_cid13_p3	gamma_cid13_p4	gamma_cid13_p5	gamma_cid14_p0
1	-0.6031325040757117	-0.07937563501493172	0.5333738661080853	1.988407959637454	-0.4612834263546984	0.01361014928395722	-0.2617944673166012	1.492556910387888	1.492556910388045	-0.01727673726300121	-0.1745291080614344	0.2458109456496842	0.01341764229105838	-0.01764893639198755	0.009368136217625941	0.003355603647530426	-0.003188179836013001	-0.002769161723826017	0.004720614709855037	-2.14101829555058e-06	-0.001480585079022335	-0.001480585079022804	-0.008363308793475738	-1.383114387674724e-05	0.01870445634827742	0.007845775590674776	-0.3728840235541587	0.0210906879052747	-0.004068204468169249	-0.2911340891420239	0.00106920347051135	0.02551995400883729	0.3100676876760621	-39.92688138464707	-3.177156330705904	-0.8748296498369129	12.92298577368667	-654.6120164091129	-36.44962355022302	-0.0676611352833071	1.603888359912712	0.1330265214797553	2.199824362950601	-7.395155939113401	-0.07513678967078929	-2.253540914309628	-0.02196003836718026	-5.69505042699729	-5.695050426997202	-0.8677207086973907	-0.04094908293094265	-0.6234460701960691	-0.4494024067079727	3.177714943512316e-09	1.741872657935861e-08	-1.207025900196379e-08	2.372865397993711e-09	-1.882763360927474e-09	2.830431371758648e-08	7.992325679760789e-10
1.01	-0.6032297763438162	-0.07927534995611125	0.5335172657902691	1.988007591665657	-0.4613137375916787	0.01354477633121797	-0.2617945286340361	1.492257458546267	1.492257458546257	-0.0174021803815589	-0.1745293347774599	0.2459669802974791	0.01347523329484029	-0.001804534741102735	0.01069290177261876	0.0253199128330429	-0.07687515806029409	-0.003288318977847983	-0.01779042902453266	-9.762556050146133e-06	-0.05840596963910207	-0.05840596963910218	-0.01672350006031238	-2.695280724343027e-05	0.01249613879360052	0.003674499539175364	-0.3727412905471676	0.02115266772840944	-0.004054967214856483	-0.2910451006440132	0.00103845662036809	0.02554782455702418	0.3099688766792963	-39.92304944686623	-3.19682464630899	-0.8638204572086551	12.81599602882117	-654.4609390983263	-36.48786403688882	-0.06865887340997463	1.574861809936249	0.1328047220118085	2.194068909950829	-7.353932125041806	-0.03958675390982772	-2.249175675066389	0.009890774850753256	-5.690708294333213	-5.690708294333183	-0.8199014855483702	0.0191929280454264	-0.62047582771146	-0.4006790982339504	-5.532422750614012e-09	-3.086908252018643e-10	2.026898668270078e-09	-3.859184667111828e-09	-1.136904459846612e-08	7.166976011594278e-08	-1.056131346361287e-08
1.02	-0.6031685754469638	-0.07916169661184015	0.5338801755070265	1.986870661239437	-0.4613490967133266	0.01325443502674081	-0.2617946553695871	1.491388867694281	1.491388867694086	-0.01761117204272331	-0.1745295553829595	0.2460607415238057	0.01349117375933427	0.01404569660017	0.01204179330775304	0.04725761056248546	-0.1505006707228313	-0.003778738657550156	-0.0402730556414416	-1.522464060285753e-05	-0.1153083871519843	-0.115308387151985	-0.02507301732201602	-1.260902720723817e-05	0.006249772054605703	-0.0004843322668413074	-0.3725985575400789	0.02121464755158765	-0.004041729961388837	-0.2909561121460104	0.001007709770216515	0.02557569510526166	0.3098700656826331	-39.92438683232552	-3.215324892454048	-0.8532975325326341	12.73204103581246	-654.3833172480387	-36.50912664996506	-0.0715115671576461	1.605054297990311	0.1378517175080487	2.194502071736614	-7.382862826764624	-0.06938927480689738	-2.24785749081394	-0.02152814772702813	-5.69045701755776	-5.690457017557862	-0.8655859076708097	-0.03545599425049491	-0.6310559070596589	-0.4469135576115164	-1.481442923674036e-08	-1.948784265575097e-08	1.605632924085969e-08	-1.051026113954472e-08	-2.108007503108497e-08	1.154019633513721e-07	-2.23701265807044e-08
1.03	-0.6029487812593642	-0.07903437538220456	0.534462251017662	1.9849979211735	-0.4613892169585399	0.01273941265666712	-0.2617948321548807	1.489951462038966	1.489951462039029	-0.01790358457402308	-0.174529600965056	0.246091751024264	0.01346553123381972	0.02991940826909488	0.01343222366284879	0.06914527549422317	-0.224022659802186	-0.004239172283204822	-0.06272441934064395	-1.948358494909143e-05	-0.1721597080320737	-0.1721597080320723	-0.03340561501673787	3.446936170096624e-07	-6.360357999737103e-05	-0.004645740770321304	-0.3721143588249158	0.02128471675183368	-0.004030336173845773	-0.2908148469192289	0.001180884937252164	0.02570028549163314	0.3095494809637442	-39.83854825963907	-3.302540973999397	-0.8187450396018758	12.52279436589505	-654.0162411940988	-36.64087132228892	-0.07643574437195756	1.579465346193564	0.1411008775639274	2.184060075793165	-7.333169419507503	-0.03344615434515557	-2.242746842394478	0.01022255643540921	-5.680507333077232	-5.680507333076892	-0.8165340110845066	0.01921035693067813	-0.6338428564728142	-0.4009866058408117	-2.410227111870344e-08	-3.86818081028918e-08	3.00850687206162e-08	-1.716561339164422e-08	-3.07933988228373e-08	1.591379090035063e-07	-3.418351385172962e-08
